<svg xmlns="http://www.w3.org/2000/svg" viewBox="0 0 138.375 35.49"><path fill="#E75C25" d="M23.884 26.13c-.544-.003-.926.062-1.138.162-.217.106-.363.33-.444.652-.17.603-.358 1.188-.515 1.8-.252.872-.363 1.447-.31 1.722.05.34.65.526 1.787.52l5.292.02-.412 1.54-8.318-.025c-1.148 0-2.1-.14-2.854-.39-.95-.31-1.484-.81-1.6-1.49-.064-.4.04-1.12.31-2.15.212-.69.398-1.36.6-2.04.185-.73.626-1.23 1.347-1.51.58-.23 1.52-.34 2.8-.34l11.76.05-.51 1.54-7.81-.04zm10.067-1.507l9.77.045c.97-.01 1.8.178 2.48.532.71.37 1.12.87 1.22 1.484.09.597-.07 1.483-.5 2.668l-.96 3.244-11.52-.036c-1.04.007-1.93-.152-2.69-.46-.84-.353-1.31-.85-1.41-1.49-.04-.195.04-.704.24-1.5.18-.717.57-1.226 1.16-1.497.54-.243 1.41-.355 2.63-.352l5.86.02c.82 0 1.19-.21 1.13-.64-.05-.28-.52-.43-1.41-.44l-6.36-.02.4-1.54zm6.91 4.18l-2.96-.012c-.48 0-.8.04-.94.1-.17.08-.29.26-.37.54-.17.71-.26 1.09-.25 1.14.05.32.48.47 1.29.48l2.71.01.53-2.24zm6.92 6.672l2.74-10.788 11.54.038c1.08.004 1.99.138 2.7.417.85.317 1.34.8 1.44 1.457.07.41-.04 1.13-.31 2.17l-.59 1.99c-.31 1.26-1.56 1.9-3.76 1.89l-6.92-.03-.76 2.86-6.06-.02zm11.02-9.227h-2.65l-1.2 4.85 2.98.002c.56 0 .93-.09 1.11-.27.09-.09.2-.35.31-.768.16-.536.32-1.082.48-1.628.26-.888.36-1.473.32-1.75-.05-.284-.49-.43-1.32-.436m16.31-1.478l-.15.602c-.05.167 1.13-.595 2.6-.59l3.48.002-.56 2.19-4.39-.005c-.94-.01-1.48.21-1.59.67l-1.28 5.05-6.13-.02 1.98-7.94 6.07.02zm14.06-1.75c-.33.887-1.86 1.037-3.63 1.015-1.85-.062-2.98-.442-2.84-1.12.2-.78 1.88-.944 3.68-.96 1.65.02 2.95.465 2.8 1.065m-.6 1.8l-1.98 7.92-6.14-.025 2-7.926 6.12.03zm6.72.018l7.61.02c1.11.005 2.03.18 2.75.508.78.356 1.23.88 1.35 1.587.07.432-.01 1.08-.25 1.916-.18.63-.36 1.25-.54 1.87-.21.87-.71 1.44-1.47 1.71-.6.23-1.67.33-3.21.33L94 32.74c-1.29-.01-2.28-.13-2.96-.37-.9-.3-1.4-.85-1.53-1.62-.06-.38.048-1.07.31-2.08.2-.69.4-1.38.598-2.07.19-.77.77-1.28 1.747-1.54.65-.18 1.72-.27 3.17-.26m.26 5.95c.046.3.46.442 1.26.45l1.926.01c.48 0 .79-.04.96-.11.2-.098.34-.28.41-.56.17-.6.36-1.2.53-1.81.26-.89.35-1.5.3-1.84-.06-.36-.52-.52-1.37-.53l-1.65-.01c-.482 0-.82.033-1.02.11-.25.1-.41.292-.483.58-.177.625-.346 1.25-.53 1.875-.254.94-.36 1.556-.317 1.83m21.06-8.74l-2.31 9.362-.37 1.42-6.15-.01 2.35-9.36.345-1.42 6.14.01zm5.9 2.89l7.606.02c1.1.003 2.03.164 2.73.5.8.362 1.25.89 1.35 1.58.08.442-.007 1.08-.23 1.93l-.56 1.88c-.214.86-.696 1.43-1.47 1.71-.6.22-1.67.33-3.196.32l-7.56-.02c-1.29-.01-2.28-.125-2.96-.37-.9-.31-1.413-.85-1.54-1.63-.05-.36.06-1.056.32-2.07.2-.69.4-1.37.58-2.075.19-.75.78-1.26 1.75-1.516.66-.18 1.713-.267 3.18-.26m.26 5.953c.05.28.465.44 1.25.45l1.94-.01c.46.002.775-.038.94-.1.215-.09.34-.288.41-.56.188-.6.35-1.2.53-1.81.25-.9.34-1.51.295-1.84-.052-.354-.502-.537-1.353-.54l-1.67-.005c-.47.01-.81.05-1.005.13-.26.08-.42.28-.485.58-.17.62-.35 1.25-.53 1.86-.27.94-.37 1.553-.32 1.842"/><path fill="#E75C25" d="M7.948 22.667c-.012 2.205-2.243 3-3.86 3.872-1.523.82-.795 1.08-1.345 2.73-.205 1.09-.383 2.9-1.22 3.55-.132.1-.284-.2-.444-.15-.42.65-.68 1.36-1.08 2 .48-.13.75-.18 1.29-.27 1-.16 2.06-1.26 2.62-3.49.62-1.22.66-2.45 2.01-2.65 3.48-.55 6.98-1.13 7-5.19 0-2.05 6.12-2 7.14-1.99 3.19.01 8.17-1.56 10.85-3.33.77-.64 1.93-1.64 3.06-1.92 1.12-.28.83.7.83.7-.65.89-3.08 3.04-3.09 4.07-.01.37.64.38.9.38.38 0 1.78-.24 1.91-.63.89-1.52 1.29-3.56 2.45-5.34.38-.51.51-.64.51-1.28 0-.42-.49-.8-1.01-.71-1.52.25-2.84 1.62-3.86 1.61-.39 0-.39-.42-.39-.68.01-1.28.49-1.02.34-2.28-.28-2.21-2.46-3.76-2.45-5.68 0-1.66 1.67-3.05 1.67-4.7.01-.9-.03-.97-1.06-.97-.77-.01-5.05 2.31-5.95 2.31-.21 0-1.1-.35-1.86-.97-.59-.5-.89-1.69-1.28-1.69-.38.13.33 1.06.45 1.87-1.2-.35-2.32-1.68-2.91-1.79-.13.37.713.9 1.27 1.98-.8.04-1.27.3-1.108.7.77.12.9-.55 2.394-.06.27.01 2.35 1.24 2.2 1.53-1.43.68-3.18.41-3.18 1.3.26 1.38 2.18 2.08 3.79 1.17.77.01.97 1.62.964 2.12-.026 5.89-18.95 4.65-18.98 11.03-.005 1.15 1.4 1.42 1.395 2.82m128.74.3c.94.01 1.68.74 1.68 1.67-.01.93-.76 1.67-1.718 1.67-.95 0-1.7-.75-1.7-1.68.002-.93.76-1.65 1.71-1.65h.014zm-.03.33c-.72 0-1.28.6-1.28 1.32-.008.74.55 1.34 1.29 1.34.713.02 1.263-.58 1.27-1.3 0-.74-.547-1.34-1.27-1.34h-.01zm-.268 2.19H136V23.8c.15-.02.36-.05.635-.05.31 0 .45.05.56.13.1.08.174.2.17.36 0 .21-.15.34-.345.4v.01c.16.06.24.19.296.41.045.26.085.35.116.41h-.406c-.053-.06-.083-.2-.13-.4-.03-.17-.132-.25-.345-.253l-.18-.003v.66zm.012-.93l.18.01c.22 0 .39-.07.39-.24 0-.15-.11-.25-.35-.25-.1 0-.177.01-.21.02l-.01.48z"/></svg>