<svg id="svg" version="1.1" width="785" height="676" xmlns="http://www.w3.org/2000/svg" xmlns:xlink="http://www.w3.org/1999/xlink" style="display: block;"><g id="svgg"><path id="path0" d="M241.197 5.051 C 224.082 10.266,209.411 29.913,198.996 61.562 C 197.134 67.220,196.624 67.664,187.771 71.344 C 148.570 87.638,115.931 120.249,94.195 164.841 C 90.564 172.290,90.567 171.857,94.140 173.266 C 101.002 175.973,112.324 182.626,114.888 185.460 C 115.761 186.424,115.924 186.180,120.464 177.175 C 131.401 155.478,141.159 141.645,155.234 127.888 C 168.522 114.899,185.852 101.699,186.395 104.153 C 186.680 105.441,184.262 114.709,176.281 142.930 C 157.677 208.709,156.085 224.446,166.965 234.999 C 175.439 243.217,186.323 243.480,207.055 235.967 C 214.949 233.107,225.132 230.028,225.456 230.405 C 225.536 230.498,226.082 232.991,226.670 235.946 C 236.203 283.853,283.893 308.096,335.401 291.221 C 390.420 273.196,412.247 212.500,377.256 174.835 C 367.283 164.100,356.462 158.777,337.801 155.425 L 334.455 154.824 333.850 151.935 C 331.648 141.409,322.988 137.810,304.115 139.577 C 268.800 142.884,239.290 165.105,229.069 196.086 C 228.495 197.826,227.784 198.965,227.081 199.269 C 225.148 200.106,190.631 210.955,189.902 210.955 C 188.114 210.955,194.892 182.570,207.934 135.433 C 209.352 130.308,210.822 124.968,211.199 123.567 C 215.773 106.597,223.504 79.616,226.075 71.652 C 234.410 45.839,246.445 29.214,253.467 33.815 C 257.315 36.336,256.116 41.573,250.417 47.134 C 248.002 49.491,245.698 52.288,244.955 53.765 C 240.190 63.247,233.426 82.116,233.383 86.044 C 233.358 88.388,253.482 79.833,263.472 73.253 C 282.889 60.464,289.915 40.620,281.251 23.043 C 274.478 9.302,255.388 0.727,241.197 5.051 M40.739 18.591 C 31.846 20.422,29.303 24.989,28.533 40.510 C 26.308 85.348,25.818 104.130,26.159 131.465 C 26.524 160.671,27.003 168.839,29.386 186.446 L 30.241 192.764 28.242 194.314 C -1.280 217.201,-3.208 261.384,24.406 282.192 C 55.867 305.899,117.871 296.046,133.720 264.822 C 143.342 245.864,120.407 232.853,108.491 250.511 C 96.489 268.297,57.069 272.655,40.365 258.043 C 31.933 250.666,31.293 234.481,39.072 225.306 L 40.513 223.606 43.478 228.584 C 59.101 254.813,91.113 260.441,109.949 240.272 C 131.454 217.245,110.097 180.915,75.045 180.895 L 68.815 180.892 69.108 182.548 C 71.940 198.582,76.307 209.033,81.019 211.050 C 91.117 215.374,91.252 224.577,81.203 223.540 C 59.183 221.268,51.621 174.553,56.317 69.809 C 57.739 38.099,57.819 31.716,56.840 28.395 C 54.653 20.984,48.200 17.054,40.739 18.591 M293.749 174.128 C 295.157 183.518,302.140 186.805,315.698 184.461 C 344.221 179.530,364.797 193.248,364.833 217.219 C 364.874 244.233,341.985 264.246,307.310 267.512 C 253.696 272.562,233.589 204.656,280.328 176.388 C 288.821 171.251,293.206 170.513,293.749 174.128 M285.978 185.474 C 277.242 189.517,267.451 204.160,265.707 215.792 C 265.288 218.584,264.210 218.514,277.048 216.533 C 294.118 213.899,299.647 212.174,302.636 208.550 C 312.582 196.492,299.958 179.005,285.978 185.474 M15.796 320.764 L 15.796 332.739 18.344 332.739 C 20.565 332.739,20.892 332.606,20.892 331.704 C 20.892 330.687,20.916 330.688,22.423 331.802 C 26.911 335.120,33.428 331.621,34.362 325.391 C 35.534 317.575,28.173 311.828,22.324 315.992 L 20.892 317.012 20.892 312.901 L 20.892 308.790 18.344 308.790 L 15.796 308.790 15.796 320.764 M38.217 310.828 L 38.217 312.866 41.019 312.866 L 43.822 312.866 43.822 310.828 L 43.822 308.790 41.019 308.790 L 38.217 308.790 38.217 310.828 M105.478 320.792 L 105.478 332.795 107.898 332.639 L 110.318 332.484 110.455 320.637 L 110.592 308.790 108.035 308.790 L 105.478 308.790 105.478 320.792 M145.732 320.764 L 145.732 332.739 148.280 332.739 L 150.828 332.739 150.828 320.764 L 150.828 308.790 148.280 308.790 L 145.732 308.790 145.732 320.764 M276.178 320.764 L 276.178 332.739 278.471 332.739 L 280.764 332.739 280.764 320.764 L 280.764 308.790 278.471 308.790 L 276.178 308.790 276.178 320.764 M321.529 320.764 L 321.529 332.739 324.076 332.739 L 326.624 332.739 326.624 327.111 C 326.624 319.818,328.467 317.265,331.791 319.955 C 332.907 320.858,333.001 321.325,333.098 326.451 C 333.156 329.489,333.213 332.146,333.226 332.357 C 333.238 332.567,334.280 332.739,335.541 332.739 L 337.834 332.739 337.834 325.893 C 337.834 318.439,337.502 316.907,335.618 315.672 C 333.348 314.185,331.160 314.170,329.022 315.626 C 327.959 316.350,326.984 316.943,326.856 316.943 C 326.729 316.943,326.624 315.108,326.624 312.866 L 326.624 308.790 324.076 308.790 L 321.529 308.790 321.529 320.764 M342.420 310.828 L 342.420 312.866 345.223 312.866 L 348.025 312.866 348.025 310.828 L 348.025 308.790 345.223 308.790 L 342.420 308.790 342.420 310.828 M308.790 312.584 C 308.790 314.565,308.641 314.904,307.771 314.904 C 306.927 314.904,306.752 315.244,306.752 316.883 C 306.752 318.433,306.972 318.920,307.771 319.129 C 308.707 319.373,308.790 319.824,308.790 324.680 C 308.790 331.929,310.772 334.126,316.035 332.709 C 319.010 331.908,319.023 328.259,316.051 328.350 L 314.140 328.408 313.994 323.694 L 313.847 318.981 315.904 318.981 L 317.962 318.981 317.962 316.943 C 317.962 314.909,317.957 314.904,315.953 314.904 C 313.954 314.904,313.943 314.894,313.787 312.739 L 313.631 310.573 311.210 310.418 L 308.790 310.263 308.790 312.584 M53.758 314.980 C 48.227 316.998,45.866 323.943,48.986 329.019 C 51.730 333.484,59.299 334.550,62.683 330.947 L 63.898 329.654 62.590 328.346 C 61.327 327.083,61.228 327.065,59.711 327.850 C 55.983 329.778,52.484 327.827,52.484 323.822 C 52.484 319.888,55.981 317.865,59.571 319.721 C 61.315 320.623,64.739 317.943,63.176 316.900 C 59.953 314.749,56.384 314.022,53.758 314.980 M91.465 315.133 C 81.814 318.673,84.235 333.001,94.483 332.991 C 97.698 332.988,101.401 331.378,101.401 329.984 C 101.401 328.334,98.963 326.945,97.616 327.827 C 92.850 330.950,87.811 324.945,91.510 320.549 C 93.027 318.746,94.924 318.504,97.419 319.794 C 98.955 320.588,101.412 319.235,101.398 317.602 C 101.380 315.570,94.761 313.925,91.465 315.133 M120.720 314.882 C 112.275 317.441,112.379 330.481,120.863 332.765 C 126.145 334.188,132.347 331.050,129.445 328.424 C 128.507 327.575,128.315 327.570,126.377 328.345 C 123.666 329.430,122.706 329.388,121.088 328.116 C 118.436 326.030,119.204 325.605,125.621 325.605 C 132.356 325.605,132.431 325.554,131.475 321.571 C 130.223 316.350,125.523 313.427,120.720 314.882 M161.918 314.902 C 157.579 316.209,154.904 319.610,154.904 323.822 C 154.904 331.762,164.533 336.067,170.696 330.881 C 178.323 324.463,171.488 312.021,161.918 314.902 M201.230 314.856 C 194.099 317.158,192.659 327.511,198.896 331.638 C 203.680 334.804,213.765 331.873,209.954 328.424 C 209.016 327.575,208.824 327.570,206.887 328.345 C 203.929 329.528,202.933 329.385,201.107 327.516 L 199.490 325.860 205.860 325.605 L 212.229 325.350 212.135 323.203 C 211.875 317.305,206.466 313.165,201.230 314.856 M223.866 315.381 C 222.980 315.922,222.013 316.781,221.716 317.290 C 221.257 318.080,221.175 317.972,221.162 316.561 C 221.147 314.915,221.130 314.904,218.599 314.904 L 216.051 314.904 216.051 323.822 L 216.051 332.739 218.599 332.739 L 221.146 332.739 221.146 328.646 C 221.146 322.699,222.568 320.000,225.699 320.000 C 226.635 320.000,226.752 319.690,226.752 317.197 C 226.752 314.057,226.401 313.836,223.866 315.381 M233.893 314.918 C 227.523 316.411,228.361 323.388,235.203 325.815 C 237.518 326.635,238.217 327.119,238.217 327.900 C 238.217 329.367,235.392 329.529,232.855 328.207 L 230.870 327.172 229.830 328.633 C 229.258 329.436,228.790 330.226,228.790 330.387 C 228.790 330.907,232.555 332.591,234.515 332.946 C 243.326 334.545,246.550 324.351,237.964 322.039 C 234.994 321.239,233.537 319.904,234.636 318.992 C 235.474 318.297,237.354 318.547,240.093 319.716 C 240.853 320.041,242.548 317.949,242.548 316.687 C 242.548 315.562,236.459 314.317,233.893 314.918 M262.270 315.049 C 254.899 317.412,253.676 327.723,260.280 331.818 C 265.260 334.907,274.618 331.713,270.880 328.202 C 269.719 327.111,269.581 327.094,268.103 327.858 C 264.311 329.819,260.892 327.818,260.892 323.639 C 260.892 320.048,264.623 317.986,267.979 319.721 C 269.722 320.623,273.147 317.943,271.583 316.900 C 268.295 314.705,265.236 314.097,262.270 315.049 M291.280 315.114 C 283.218 318.099,282.857 328.737,290.696 332.298 C 298.764 335.963,307.191 327.235,303.062 319.490 C 300.958 315.545,295.547 313.535,291.280 315.114 M360.775 314.940 C 360.080 315.230,359.135 315.809,358.674 316.226 C 357.925 316.903,357.808 316.874,357.565 315.944 C 357.341 315.088,356.880 314.904,354.952 314.904 L 352.611 314.904 352.611 323.850 L 352.611 332.795 355.032 332.639 L 357.452 332.484 357.707 326.454 C 357.976 320.083,358.441 318.981,360.862 318.981 C 363.200 318.981,363.822 320.641,363.822 326.879 L 363.822 332.739 366.369 332.739 L 368.917 332.739 368.917 326.353 C 368.917 316.567,366.153 312.693,360.775 314.940 M377.895 314.922 C 371.471 316.845,370.562 327.131,376.547 330.184 C 379.305 331.591,382.094 331.508,384.387 329.952 L 386.242 328.693 386.242 329.883 C 386.242 333.812,381.620 335.158,375.799 332.924 C 375.019 332.625,373.273 335.520,373.759 336.307 C 374.869 338.103,383.959 338.500,387.115 336.890 C 390.560 335.132,391.067 333.427,391.076 323.567 L 391.083 315.159 388.662 315.004 C 386.520 314.866,386.242 314.967,386.242 315.881 C 386.242 316.886,386.178 316.880,383.873 315.654 C 381.385 314.332,380.308 314.200,377.895 314.922 M38.726 323.794 L 38.726 332.739 41.019 332.739 L 43.312 332.739 43.312 324.331 C 43.312 319.707,43.369 315.752,43.439 315.541 C 43.510 315.331,42.478 315.089,41.146 315.004 L 38.726 314.849 38.726 323.794 M65.732 315.143 C 65.732 315.303,67.231 319.256,69.063 323.926 C 72.697 333.192,72.755 333.758,70.067 333.758 C 68.336 333.758,67.261 334.934,67.261 336.829 C 67.261 337.834,71.409 338.455,73.304 337.734 C 75.644 336.843,76.319 335.629,80.240 325.249 C 82.018 320.540,83.639 316.274,83.841 315.767 C 84.171 314.938,83.937 314.862,81.491 315.003 L 78.775 315.159 76.874 321.019 C 75.828 324.242,74.843 326.535,74.684 326.115 C 74.526 325.694,73.631 323.057,72.696 320.255 L 70.996 315.159 68.364 315.005 C 66.917 314.921,65.732 314.982,65.732 315.143 M175.501 315.767 C 175.692 316.274,177.254 320.299,178.974 324.713 L 182.100 332.739 184.451 332.739 L 186.803 332.739 190.023 324.459 C 191.794 319.904,193.360 315.879,193.502 315.512 C 193.700 315.004,193.120 314.884,191.053 315.003 L 188.344 315.159 186.546 320.637 C 185.557 323.650,184.618 326.115,184.459 326.115 C 184.299 326.115,183.360 323.650,182.371 320.637 L 180.573 315.159 177.864 315.003 C 175.432 314.863,175.191 314.941,175.501 315.767 M342.743 315.305 C 342.607 315.525,342.536 319.480,342.585 324.095 L 342.675 332.484 345.096 332.639 L 347.516 332.795 347.516 323.850 L 347.516 314.904 345.253 314.904 C 344.008 314.904,342.879 315.085,342.743 315.305 M125.628 319.722 C 127.830 321.923,127.337 322.548,123.397 322.548 C 119.456 322.548,119.037 322.345,119.846 320.825 C 121.227 318.231,123.671 317.765,125.628 319.722 M206.138 319.722 C 208.348 321.932,207.849 322.548,203.852 322.548 C 199.670 322.548,199.150 322.046,201.201 319.994 C 203.051 318.144,204.481 318.065,206.138 319.722 M385.096 320.334 C 388.659 324.225,382.568 329.620,378.830 325.883 C 376.593 323.646,377.549 319.922,380.637 318.844 C 381.957 318.383,383.905 319.034,385.096 320.334 M28.288 320.612 C 29.421 321.959,29.614 322.590,29.394 324.229 C 28.562 330.433,20.892 330.065,20.892 323.822 C 20.892 319.184,25.430 317.215,28.288 320.612 M167.488 320.211 C 170.709 322.982,168.684 328.662,164.474 328.662 C 161.620 328.662,160.000 326.910,160.000 323.822 C 160.000 319.421,164.210 317.391,167.488 320.211 M297.789 320.549 C 300.664 323.965,298.813 328.662,294.591 328.662 C 292.965 328.662,292.319 328.359,291.255 327.095 C 288.535 323.862,290.501 318.981,294.522 318.981 C 296.072 318.981,296.740 319.302,297.789 320.549 " stroke="none" fill="#ec1e25" fill-rule="evenodd"></path></g></svg>