<svg id="svg" version="1.1" width="400" height="344" xmlns="http://www.w3.org/2000/svg" xmlns:xlink="http://www.w3.org/1999/xlink" style="display: block;"><g id="svgg"><path id="path0" d="M242.440 4.937 C 226.435 8.768,210.670 28.524,200.496 57.500 C 196.955 67.584,197.165 67.378,185.305 72.418 C 149.577 87.600,117.212 119.922,95.689 161.914 L 90.864 171.328 98.056 174.659 C 102.011 176.491,107.442 179.567,110.126 181.495 C 116.469 186.052,115.752 186.477,121.488 174.752 C 133.529 150.137,152.650 127.023,174.395 110.795 C 184.973 102.901,187.477 101.877,186.556 105.820 C 185.539 110.175,171.927 159.364,171.286 161.000 C 170.962 161.825,170.580 163.067,170.436 163.761 C 170.292 164.454,168.585 171.429,166.644 179.261 C 152.769 235.229,163.852 250.336,207.708 235.236 C 226.840 228.649,225.327 228.455,227.328 237.750 C 238.232 288.400,295.856 310.912,348.477 285.080 C 412.717 253.543,407.426 168.616,340.432 155.958 C 334.451 154.828,334.348 154.752,333.251 150.656 C 327.820 130.380,277.582 137.860,250.622 162.958 C 241.590 171.367,231.667 186.509,229.481 195.221 C 229.108 196.704,228.285 198.301,227.652 198.768 C 225.859 200.091,189.878 211.211,189.290 210.623 C 188.557 209.891,193.217 189.396,198.543 169.924 C 201.014 160.891,203.282 152.247,203.583 150.716 C 205.235 142.318,225.526 72.475,228.970 63.337 C 236.080 44.468,244.431 33.000,251.060 33.000 C 257.539 33.000,257.236 39.960,250.450 47.000 C 244.945 52.712,234.000 77.455,234.000 84.188 C 234.000 89.881,265.740 73.855,274.596 63.692 C 297.666 37.214,275.651 -3.013,242.440 4.937 M37.207 19.992 C 30.218 23.164,29.369 26.276,28.059 53.500 C 25.315 110.538,25.693 156.378,29.128 183.162 L 30.255 191.950 22.834 199.839 C -9.029 233.709,2.732 279.535,46.535 292.189 C 81.919 302.411,133.558 282.172,135.703 257.241 C 136.939 242.883,117.511 236.347,109.952 248.578 C 100.612 263.690,73.667 270.793,51.617 263.956 C 34.295 258.585,28.311 241.894,38.050 226.110 L 40.141 222.719 44.884 230.122 C 59.998 253.713,89.014 258.917,107.907 241.426 C 131.726 219.373,111.629 181.123,76.171 181.021 L 68.841 181.000 69.505 184.250 C 72.645 199.626,76.692 208.292,81.999 210.999 C 92.223 216.215,89.895 225.934,79.117 223.032 C 75.004 221.924,68.396 215.786,69.462 214.062 C 69.843 213.445,69.594 213.073,68.902 213.225 C 65.431 213.990,58.014 187.163,56.303 167.655 C 55.203 155.111,55.290 87.860,56.438 64.000 C 58.168 28.017,57.567 23.919,49.965 19.842 C 45.616 17.509,42.600 17.545,37.207 19.992 M294.000 174.100 C 294.000 182.210,302.096 185.840,316.063 183.992 C 375.703 176.098,384.135 246.006,325.699 263.885 C 275.583 279.220,238.075 240.253,260.450 196.099 C 267.516 182.155,294.000 164.789,294.000 174.100 M284.867 186.008 C 277.292 190.011,267.986 203.979,266.436 213.673 L 265.785 217.743 278.143 215.864 C 292.712 213.648,298.968 211.752,301.731 208.717 C 313.032 196.304,299.603 178.221,284.867 186.008 M16.000 319.930 L 16.000 332.000 18.500 332.000 C 19.875 332.000,21.000 331.460,21.000 330.800 C 21.000 329.867,21.267 329.867,22.200 330.800 C 24.194 332.794,29.702 332.236,31.961 329.811 C 38.042 323.284,30.714 310.681,23.563 315.367 L 21.114 316.972 20.807 312.736 C 20.552 309.217,20.119 308.446,18.250 308.180 C 16.023 307.864,16.000 307.986,16.000 319.930 M39.000 310.000 C 39.000 311.333,39.667 312.000,41.000 312.000 C 42.333 312.000,43.000 311.333,43.000 310.000 C 43.000 308.667,42.333 308.000,41.000 308.000 C 39.667 308.000,39.000 308.667,39.000 310.000 M106.000 320.000 C 106.000 331.333,106.111 332.000,108.000 332.000 C 109.889 332.000,110.000 331.333,110.000 320.000 C 110.000 308.667,109.889 308.000,108.000 308.000 C 106.111 308.000,106.000 308.667,106.000 320.000 M146.000 320.000 L 146.000 332.000 148.500 332.000 L 151.000 332.000 151.000 320.000 L 151.000 308.000 148.500 308.000 L 146.000 308.000 146.000 320.000 M276.000 320.000 L 276.000 332.000 278.500 332.000 L 281.000 332.000 281.000 320.000 L 281.000 308.000 278.500 308.000 L 276.000 308.000 276.000 320.000 M322.000 319.930 L 322.000 332.000 324.452 332.000 C 326.762 332.000,326.922 331.637,327.202 325.750 C 327.484 319.829,327.632 319.500,330.000 319.500 C 332.368 319.500,332.516 319.829,332.798 325.750 C 333.078 331.637,333.238 332.000,335.548 332.000 C 337.911 332.000,338.000 331.752,338.000 325.191 C 338.000 315.891,334.995 312.694,328.815 315.421 C 327.423 316.035,327.076 315.498,326.815 312.332 C 326.561 309.236,326.068 308.439,324.250 308.180 C 322.023 307.864,322.000 307.986,322.000 319.930 M343.000 309.930 C 343.000 311.487,343.638 312.000,345.573 312.000 C 348.856 312.000,348.564 308.655,345.240 308.180 C 343.539 307.938,343.000 308.359,343.000 309.930 M309.000 312.500 C 309.000 313.875,308.550 315.000,308.000 315.000 C 307.450 315.000,307.000 315.900,307.000 317.000 C 307.000 318.100,307.450 319.000,308.000 319.000 C 308.550 319.000,309.000 321.385,309.000 324.300 C 309.000 330.454,310.144 332.000,314.700 332.000 C 317.333 332.000,318.000 331.596,318.000 330.000 C 318.000 328.667,317.333 328.000,316.000 328.000 C 314.900 328.000,313.967 327.663,313.928 327.250 C 313.295 320.688,313.596 319.059,315.490 318.786 C 318.408 318.367,318.660 315.231,315.808 314.827 C 314.539 314.647,313.444 313.938,313.375 313.250 C 313.306 312.563,313.194 311.550,313.125 311.000 C 312.829 308.630,309.000 310.022,309.000 312.500 M54.000 314.706 C 44.815 318.064,46.538 332.000,56.138 332.000 C 61.314 332.000,64.551 330.369,63.025 328.531 C 62.294 327.649,60.599 327.378,57.997 327.727 C 54.505 328.196,53.943 327.969,52.894 325.668 C 50.845 321.170,55.075 316.497,58.966 318.958 C 59.896 319.546,60.903 319.496,61.716 318.820 C 63.707 317.168,63.266 316.288,59.851 315.098 C 56.432 313.906,56.226 313.892,54.000 314.706 M91.500 314.945 C 85.562 317.376,83.778 325.006,88.078 329.583 C 90.790 332.470,97.931 332.992,100.035 330.458 C 101.915 328.193,99.989 326.674,96.784 327.892 C 91.382 329.946,87.667 323.421,92.004 319.496 C 93.621 318.033,94.466 317.891,96.381 318.764 C 98.103 319.548,99.063 319.537,99.877 318.723 C 101.629 316.971,101.243 316.280,97.851 315.098 C 94.253 313.844,94.195 313.842,91.500 314.945 M119.400 315.428 C 114.281 317.656,113.093 325.859,117.314 329.826 C 120.687 332.994,130.000 332.719,130.000 329.452 C 130.000 327.442,128.098 326.674,126.469 328.026 C 124.691 329.502,120.427 328.554,119.642 326.509 C 119.162 325.260,120.176 325.000,125.531 325.000 C 132.555 325.000,132.765 324.768,130.548 319.462 C 128.472 314.492,124.692 313.124,119.400 315.428 M160.329 315.458 C 151.138 319.456,154.124 332.000,164.266 332.000 C 174.460 332.000,177.603 319.239,168.360 315.377 C 164.393 313.720,164.323 313.720,160.329 315.458 M200.357 314.970 C 194.820 317.260,193.217 325.308,197.455 329.545 C 201.416 333.507,213.272 332.443,209.938 328.425 C 209.174 327.505,208.210 327.472,206.042 328.290 C 203.837 329.123,202.789 329.070,201.580 328.067 C 198.787 325.748,199.866 325.000,206.000 325.000 C 211.697 325.000,212.000 324.876,212.000 322.556 C 212.000 317.404,205.194 312.970,200.357 314.970 M223.000 316.000 C 221.444 317.556,221.000 317.667,221.000 316.500 C 221.000 315.567,220.056 315.000,218.500 315.000 C 216.029 315.000,216.000 315.100,216.000 323.500 C 216.000 331.900,216.029 332.000,218.500 332.000 C 220.796 332.000,221.000 331.633,221.000 327.500 C 221.000 323.118,223.423 319.000,226.000 319.000 C 226.550 319.000,227.000 317.875,227.000 316.500 C 227.000 313.481,225.684 313.316,223.000 316.000 M232.986 315.313 C 228.166 317.703,228.985 322.636,234.601 325.043 C 240.310 327.490,239.565 330.406,233.788 328.226 C 231.282 327.280,230.436 327.288,229.820 328.262 C 227.746 331.542,238.339 333.519,241.429 330.429 C 244.597 327.260,242.846 323.813,236.750 321.215 C 232.740 319.506,233.217 317.611,237.482 318.303 C 239.413 318.617,241.244 318.414,241.595 317.847 C 243.118 315.382,236.672 313.485,232.986 315.313 M261.329 315.435 C 252.202 319.470,255.229 332.000,265.330 332.000 C 270.349 332.000,272.959 330.041,270.576 328.063 C 269.598 327.252,268.539 327.170,267.314 327.812 C 263.996 329.552,261.000 327.511,261.000 323.511 C 261.000 319.260,264.284 317.011,267.769 318.876 C 269.297 319.694,270.063 319.630,270.907 318.612 C 273.387 315.624,266.252 313.258,261.329 315.435 M290.421 315.419 C 281.406 319.344,284.698 332.000,294.734 332.000 C 305.023 332.000,307.860 319.346,298.452 315.415 C 294.395 313.720,294.322 313.720,290.421 315.419 M359.750 315.447 C 358.238 316.236,357.000 316.458,357.000 315.941 C 357.000 315.423,356.100 315.000,355.000 315.000 C 353.157 315.000,353.000 315.667,353.000 323.500 C 353.000 331.333,353.157 332.000,355.000 332.000 C 356.744 332.000,357.002 331.328,357.015 326.750 C 357.046 316.108,363.295 315.187,363.798 325.750 C 364.078 331.637,364.238 332.000,366.548 332.000 C 370.264 332.000,370.262 320.171,366.545 316.455 C 363.684 313.593,363.388 313.549,359.750 315.447 M378.000 314.686 C 374.681 315.958,373.000 318.395,373.000 321.932 C 373.000 328.744,378.637 332.778,383.606 329.523 C 385.842 328.058,386.000 328.079,386.000 329.855 C 386.000 332.807,383.516 334.178,378.808 333.824 C 375.501 333.575,374.500 333.849,374.500 335.000 C 374.500 336.139,375.980 336.571,380.642 336.795 C 389.318 337.212,391.000 335.027,391.000 323.341 L 391.000 314.952 387.250 315.092 C 385.188 315.169,382.600 314.980,381.500 314.672 C 380.400 314.363,378.825 314.370,378.000 314.686 M39.000 323.500 C 39.000 331.333,39.157 332.000,41.000 332.000 C 42.843 332.000,43.000 331.333,43.000 323.500 C 43.000 315.667,42.843 315.000,41.000 315.000 C 39.157 315.000,39.000 315.667,39.000 323.500 M67.436 318.750 C 68.177 320.813,69.718 324.844,70.861 327.710 C 72.806 332.586,72.467 335.024,70.050 333.531 C 69.528 333.208,68.612 333.857,68.015 334.972 C 67.009 336.852,67.221 337.000,70.930 337.000 C 75.568 337.000,75.431 337.186,80.341 324.141 L 83.825 314.884 81.165 315.192 C 78.893 315.455,78.288 316.265,77.015 320.750 C 75.153 327.316,74.773 327.294,72.632 320.500 C 71.162 315.839,70.531 315.000,68.493 315.000 C 66.142 315.000,66.118 315.083,67.436 318.750 M175.995 315.750 C 175.992 316.163,177.392 319.988,179.107 324.250 C 184.046 336.527,185.610 335.656,192.570 316.750 C 193.071 315.387,192.677 315.000,190.790 315.000 C 188.728 315.000,188.106 315.823,186.632 320.500 C 185.678 323.525,184.719 326.000,184.500 326.000 C 184.281 326.000,183.322 323.525,182.368 320.500 C 180.825 315.602,176.021 312.022,175.995 315.750 M343.000 323.500 C 343.000 331.900,343.029 332.000,345.500 332.000 C 347.971 332.000,348.000 331.900,348.000 323.500 C 348.000 315.100,347.971 315.000,345.500 315.000 C 343.029 315.000,343.000 315.100,343.000 323.500 M28.619 320.541 C 31.170 324.435,29.144 328.237,24.743 327.813 C 21.848 327.534,21.465 327.129,21.171 324.044 C 20.624 318.293,25.609 315.948,28.619 320.541 M125.800 319.200 C 127.871 321.271,127.133 322.000,122.965 322.000 C 119.240 322.000,119.012 321.846,120.000 320.000 C 121.197 317.763,123.979 317.379,125.800 319.200 M167.429 319.571 C 169.646 321.789,169.379 325.621,166.885 327.368 C 163.326 329.861,160.043 327.677,160.015 322.800 C 159.991 318.586,164.486 316.629,167.429 319.571 M206.813 320.250 C 207.080 321.652,206.437 322.000,203.573 322.000 C 199.820 322.000,199.179 321.221,201.238 319.162 C 202.948 317.452,206.409 318.127,206.813 320.250 M297.066 319.035 C 299.970 320.590,299.751 326.773,296.750 327.937 C 291.894 329.821,287.441 322.344,291.605 319.299 C 293.752 317.730,294.554 317.691,297.066 319.035 M384.800 319.200 C 387.350 321.750,385.552 327.000,382.129 327.000 C 380.258 327.000,377.000 324.088,377.000 322.416 C 377.000 318.992,382.375 316.775,384.800 319.200 " stroke="none" fill="#ec1e24" fill-rule="evenodd"></path></g></svg>